<?xml version="1.0" encoding="UTF-8" standalone="no"?>
<svg width="940px" height="250px" viewBox="0 0 940 250" version="1.1" xmlns="http://www.w3.org/2000/svg" xmlns:xlink="http://www.w3.org/1999/xlink" xmlns:sketch="http://www.bohemiancoding.com/sketch/ns">
    <!-- Generator: Sketch 3.4 (15575) - http://www.bohemiancoding.com/sketch -->
    <title>primaerer-bus</title>
    <desc>Created with Sketch.</desc>
    <defs></defs>
    <g id="Page-1" stroke="none" stroke-width="1" fill="none" fill-rule="evenodd" sketch:type="MSPage">
        <g id="primaerer-bus" sketch:type="MSArtboardGroup">
            <g id="ML-4-Upstage-Center-" sketch:type="MSLayerGroup" transform="translate(540.000000, 20.000000)">
                <rect id="Block" fill="#00594F" sketch:type="MSShapeGroup" x="0" y="0" width="120" height="40" rx="8"></rect>
                <text id="ML-4" sketch:type="MSTextLayer" font-family="Arial" font-size="16" font-weight="normal" sketch:alignment="middle" fill="#FFFFFF">
                    <tspan x="42.2148438" y="25">ML 4</tspan>
                </text>
            </g>
            <g id="ML-6-Wing-Right" sketch:type="MSLayerGroup" transform="translate(800.000000, 20.000000)">
                <rect id="Block" fill="#00594F" sketch:type="MSShapeGroup" x="0" y="0" width="120" height="40" rx="8"></rect>
                <text id="ML-6" sketch:type="MSTextLayer" font-family="Arial" font-size="16" font-weight="normal" sketch:alignment="middle" letter-spacing="0.685714304" fill="#FFFFFF">
                    <tspan x="41.1402901" y="25">ML 6</tspan>
                </text>
            </g>
            <g id="ML-3-Upstage-Center-" sketch:type="MSLayerGroup" transform="translate(410.000000, 20.000000)">
                <rect id="Block" fill="#00594F" sketch:type="MSShapeGroup" x="0" y="0" width="120" height="40" rx="8"></rect>
                <text id="ML-3" sketch:type="MSTextLayer" font-family="Arial" font-size="16" font-weight="normal" sketch:alignment="middle" letter-spacing="0.685714304" fill="#FFFFFF">
                    <tspan x="41.1402901" y="25">ML 3</tspan>
                </text>
            </g>
            <g id="ML-1-Wing-Left" sketch:type="MSLayerGroup" transform="translate(150.000000, 20.000000)">
                <rect id="Block" fill="#00594F" sketch:type="MSShapeGroup" x="0" y="0" width="120" height="40" rx="8"></rect>
                <text id="ML-1" sketch:type="MSTextLayer" font-family="Arial" font-size="16" font-weight="normal" sketch:alignment="middle" letter-spacing="0.685714304" fill="#FFFFFF">
                    <tspan x="41.1402901" y="25">ML 1</tspan>
                </text>
            </g>
            <g id="ML-2-Upstage-Right" sketch:type="MSLayerGroup" transform="translate(280.000000, 20.000000)">
                <rect id="Block" fill="#00594F" sketch:type="MSShapeGroup" x="0" y="0" width="120" height="40" rx="8"></rect>
                <text id="ML-2" sketch:type="MSTextLayer" font-family="Arial" font-size="16" font-weight="normal" sketch:alignment="middle" letter-spacing="0.685714304" fill="#FFFFFF">
                    <tspan x="41.1402901" y="25">ML 2</tspan>
                </text>
            </g>
            <g id="grandMA2-onPC" sketch:type="MSLayerGroup" transform="translate(800.000000, 190.000000)">
                <rect id="Block" fill="#F2A900" sketch:type="MSShapeGroup" x="0" y="0" width="120" height="40" rx="8"></rect>
                <text id="grandMA2" sketch:type="MSTextLayer" font-family="Arial" font-size="16" font-weight="normal" sketch:alignment="middle" letter-spacing="0.685714304" fill="#FFFFFF">
                    <tspan x="20.3469865" y="25">grandMA2</tspan>
                </text>
            </g>
            <g id="ML-5-Upstage-Left" sketch:type="MSLayerGroup" transform="translate(670.000000, 20.000000)">
                <rect id="Block" fill="#00594F" sketch:type="MSShapeGroup" x="0" y="0" width="120" height="40" rx="8"></rect>
                <text id="ML-5" sketch:type="MSTextLayer" font-family="Arial" font-size="16" font-weight="normal" sketch:alignment="middle" letter-spacing="0.685714304" fill="#FFFFFF">
                    <tspan x="41.1402901" y="25">ML 5</tspan>
                </text>
            </g>
            <g id="Strobo" sketch:type="MSLayerGroup" transform="translate(20.000000, 20.000000)">
                <rect id="Block" fill="#00594F" sketch:type="MSShapeGroup" x="0" y="0" width="120" height="40" rx="8"></rect>
                <text sketch:type="MSTextLayer" font-family="Arial" font-size="16" font-weight="normal" sketch:alignment="middle" letter-spacing="0.685714304" fill="#FFFFFF">
                    <tspan x="34.3725446" y="25">Strobo</tspan>
                </text>
            </g>
            <path d="M500,80 L500,60 L570,60 L570,80" id="Cable" stroke="#979797" stroke-width="2" sketch:type="MSShapeGroup" transform="translate(535.000000, 70.000000) rotate(-180.000000) translate(-535.000000, -70.000000) "></path>
            <path d="M610,80 L610,60 L680,60 L680,80" id="Cable" stroke="#979797" stroke-width="2" sketch:type="MSShapeGroup" transform="translate(645.000000, 70.000000) rotate(-180.000000) translate(-645.000000, -70.000000) "></path>
            <path d="M760,80 L760,60 L830,60 L830,80" id="Cable" stroke="#979797" stroke-width="2" sketch:type="MSShapeGroup" transform="translate(795.000000, 70.000000) rotate(-180.000000) translate(-795.000000, -70.000000) "></path>
            <path d="M890,60 L890,190" id="Cable" stroke="#979797" stroke-width="2" sketch:type="MSShapeGroup" transform="translate(890.000000, 125.000000) rotate(-180.000000) translate(-890.000000, -125.000000) "></path>
            <path d="M370,80 L370,60 L440,60 L440,80" id="Cable" stroke="#979797" stroke-width="2" sketch:type="MSShapeGroup" transform="translate(405.000000, 70.000000) rotate(-180.000000) translate(-405.000000, -70.000000) "></path>
            <path d="M240,80 L240,60 L310,60 L310,80" id="Cable" stroke="#979797" stroke-width="2" sketch:type="MSShapeGroup" transform="translate(275.000000, 70.000000) rotate(-180.000000) translate(-275.000000, -70.000000) "></path>
            <path d="M110,80 L110,60 L180,60 L180,80" id="Cable" stroke="#979797" stroke-width="2" sketch:type="MSShapeGroup" transform="translate(145.000000, 70.000000) rotate(-180.000000) translate(-145.000000, -70.000000) "></path>
        </g>
    </g>
</svg>